# xmcd CD database file
#
# Track frame offsets:
#	150
#	20528
#	37189
#	58846
#	71778
#	94486
#	112691
#	128733
#	149737
#	165679
#
# Disc length: 2458 seconds
#
# Revision: 0
# Processed by: cddbd v1.5.2PL0 Copyright (c) Steve Scherf et al.
# Submitted via: CDex 1.51
#
DISCID=9609980a
DTITLE=Polo Hofer - Polo Hofer singt Bob Dylan [CD 2)
DYEAR=2011
DGENRE=Blues
TTITLE0=Wenn i mys Meisterwärk afaa (When I Paint My Masterpiece)
TTITLE1=Sehr wahrschynlech geisch Du Dy Wäg... (Most Likely You Go Your Way...)
TTITLE2=Myni früechere Syte (My Back Pages)
TTITLE3=Du Ängel Du (You Angel You)
TTITLE4=Dr blind Willie McTell (Blind Willie McTell)
TTITLE5=Maa im schwarze Chleid (Man in the Long Black Coat)
TTITLE6=Outobahn (Highway 61)
TTITLE7=So wie ne Frou (Just Like a Woman)
TTITLE8=It Takes A Lot To Laugh, It Takes A Train To Cry
TTITLE9=It's All Over Now Baby Blue
EXTD=YEAR: 2011
EXTT0=
EXTT1=
EXTT2=
EXTT3=
EXTT4=
EXTT5=
EXTT6=
EXTT7=
EXTT8=
EXTT9=
PLAYORDER=
